<svg width="40" height="39" viewBox="0 0 40 39" fill="none" xmlns="http://www.w3.org/2000/svg">
<g clip-path="url(#clip0_747_755)">
<path d="M12.9609 8.05005H27.9609C30.2165 8.05247 32.3776 8.92747 33.9707 10.4807C35.5635 12.0337 36.4585 14.1378 36.4609 16.3313V30.9563L36.4502 31.3665C36.344 33.4107 35.464 35.3509 33.9707 36.8069C32.3776 38.3601 30.2165 39.2351 27.9609 39.2375H12.9609C10.7054 39.2351 8.54424 38.3601 6.95117 36.8069C5.35835 35.2539 4.46342 33.1498 4.46094 30.9563V16.3313L4.47168 15.9211C4.57786 13.8769 5.45791 11.9367 6.95117 10.4807C8.44463 9.02459 10.4373 8.16462 12.5391 8.06079L12.9609 8.05005ZM23.4248 16.6565C22.0095 16.0849 20.4523 15.9355 18.9502 16.2268C17.4481 16.5181 16.0676 17.2371 14.9834 18.2942C13.8991 19.3514 13.1599 20.6991 12.8604 22.1672C12.5608 23.6355 12.7144 25.1576 13.3018 26.5403C13.8891 27.9227 14.883 29.1037 16.1572 29.9338C17.4315 30.764 18.9295 31.2063 20.4609 31.2063C22.5136 31.2042 24.4832 30.4084 25.9365 28.9915C27.3901 27.5742 28.2088 25.6509 28.2109 23.6438C28.2109 22.1466 27.7557 20.6835 26.9033 19.4397C26.051 18.1961 24.8401 17.2281 23.4248 16.6565ZM20.4609 19.0188C21.7227 19.0188 22.9319 19.5072 23.8223 20.3752C24.7124 21.2431 25.2109 22.4192 25.2109 23.6438C25.2109 24.5571 24.9332 25.4507 24.4121 26.2112C23.8909 26.9716 23.1489 27.5655 22.2803 27.9163C21.4117 28.2669 20.4556 28.3588 19.5332 28.1799C18.6106 28.001 17.7635 27.5596 17.0996 26.9124C16.4358 26.2652 15.9846 25.441 15.8018 24.5452C15.619 23.6494 15.7127 22.7205 16.0713 21.8762C16.43 21.0319 17.0382 20.309 17.8193 19.8C18.6007 19.291 19.5201 19.0188 20.4609 19.0188ZM30.6475 12.5823C30.26 12.4258 29.8338 12.3854 29.4229 12.4651C29.0633 12.5348 28.7285 12.694 28.4512 12.927L28.3359 13.0315C28.0383 13.3217 27.8344 13.6926 27.752 14.0969C27.6696 14.5011 27.7125 14.9197 27.874 15.3C28.0356 15.6805 28.3089 16.0051 28.6582 16.2327C29.0074 16.4601 29.4172 16.5813 29.8359 16.5813C30.3974 16.5813 30.937 16.3637 31.3359 15.9749C31.7351 15.5856 31.9609 15.0564 31.9609 14.5032C31.9609 14.0907 31.8359 13.6878 31.6016 13.3459C31.3674 13.0042 31.0349 12.7388 30.6475 12.5823Z" fill="url(#paint0_linear_747_755)" fill-opacity="0.9" stroke="black" stroke-width="0.5"/>
</g>
<defs>
<linearGradient id="paint0_linear_747_755" x1="20.4609" y1="7.80005" x2="20.4609" y2="39.4875" gradientUnits="userSpaceOnUse">
<stop stop-color="white"/>
<stop offset="0.9999" stop-color="#F6F1D4"/>
</linearGradient>
<clipPath id="clip0_747_755">
<rect width="40" height="39" fill="white"/>
</clipPath>
</defs>
</svg>
