<svg width="36" height="30" viewBox="0 0 36 30" fill="none" xmlns="http://www.w3.org/2000/svg">
<path d="M2.75 0.25H33C33.6774 0.25 34.3194 0.470676 34.7861 0.852539C35.2515 1.23328 35.5 1.73761 35.5 2.25V27C35.5 27.5124 35.2515 28.0167 34.7861 28.3975C34.3194 28.7793 33.6774 29 33 29H2.75C2.07255 29 1.43061 28.7793 0.963867 28.3975C0.498517 28.0167 0.25 27.5124 0.25 27V2.25C0.25 1.73761 0.498517 1.23328 0.963867 0.852539C1.43061 0.470677 2.07255 0.25 2.75 0.25ZM11 11C10.5834 11 10.176 11.1347 9.86914 11.3857C9.56092 11.6379 9.375 11.9923 9.375 12.375V21.375C9.375 21.7577 9.56092 22.1121 9.86914 22.3643C10.176 22.6153 10.5834 22.75 11 22.75C11.4166 22.75 11.824 22.6153 12.1309 22.3643C12.4391 22.1121 12.625 21.7577 12.625 21.375V12.375C12.625 11.9923 12.4391 11.6379 12.1309 11.3857C11.824 11.1347 11.4166 11 11 11ZM20.9648 11.0098C19.9017 11.0572 18.8701 11.323 17.9609 11.7803C17.8364 11.5626 17.6486 11.3783 17.418 11.2451C17.0954 11.0589 16.7062 10.9784 16.3232 11.0137C15.9404 11.049 15.578 11.1989 15.3086 11.4443C15.0381 11.6908 14.8773 12.0202 14.875 12.373V21.375C14.875 21.7577 15.0609 22.1121 15.3691 22.3643C15.676 22.6153 16.0834 22.75 16.5 22.75C16.9166 22.75 17.324 22.6153 17.6309 22.3643C17.9391 22.1121 18.125 21.7577 18.125 21.375V16.3125C18.125 15.651 18.4459 15.0038 19.04 14.5176C19.6357 14.0302 20.4527 13.75 21.3125 13.75C22.1723 13.75 22.9893 14.0302 23.585 14.5176C24.1791 15.0038 24.5 15.651 24.5 16.3125V21.375C24.5 21.7577 24.6859 22.1121 24.9941 22.3643C25.301 22.6153 25.7084 22.75 26.125 22.75C26.5416 22.75 26.949 22.6153 27.2559 22.3643C27.5641 22.1121 27.75 21.7577 27.75 21.375V16.3125L27.7461 16.1299C27.7078 15.2175 27.3857 14.3309 26.8145 13.5547C26.2058 12.7276 25.3379 12.0575 24.3086 11.6113C23.2793 11.1651 22.1236 10.9581 20.9648 11.0098ZM11.8691 6.6416C11.4529 6.50062 10.9971 6.46462 10.5576 6.53613C10.1181 6.60767 9.70822 6.78454 9.38281 7.05078C9.05728 7.31722 8.8282 7.66332 8.73438 8.04883C8.64034 8.43563 8.68888 8.83634 8.87109 9.19629C9.05268 9.55496 9.35634 9.85289 9.73438 10.0596C10.1124 10.2662 10.5526 10.375 11 10.375C11.5989 10.375 12.1814 10.1808 12.6172 9.82422C13.0542 9.46655 13.3125 8.96928 13.3125 8.4375C13.3125 8.04172 13.1684 7.66042 12.9082 7.3418C12.6487 7.02412 12.2853 6.78263 11.8691 6.6416Z" fill="url(#paint0_linear_747_760)" fill-opacity="0.9" stroke="black" stroke-width="0.5"/>
<defs>
<linearGradient id="paint0_linear_747_760" x1="17.875" y1="0" x2="17.875" y2="29.25" gradientUnits="userSpaceOnUse">
<stop stop-color="white"/>
<stop offset="0.9999" stop-color="#F6F1D4"/>
</linearGradient>
</defs>
</svg>
