<svg width="26" height="26" viewBox="0 0 26 26" fill="none" xmlns="http://www.w3.org/2000/svg">
<path d="M6.50016 23.8334C5.90433 23.8334 5.39444 23.6214 4.9705 23.1975C4.54655 22.7735 4.33422 22.2633 4.3335 21.6667V10.8334C4.3335 10.2375 4.54583 9.72765 4.9705 9.30371C5.39516 8.87976 5.90505 8.66743 6.50016 8.66671H7.5835V6.50004C7.5835 5.00143 8.1118 3.72418 9.16841 2.66829C10.225 1.6124 11.5023 1.0841 13.0002 1.08337C14.4981 1.08265 15.7757 1.61096 16.833 2.66829C17.8903 3.72563 18.4183 5.00287 18.4168 6.50004V8.66671H19.5002C20.096 8.66671 20.6062 8.87904 21.0309 9.30371C21.4556 9.72838 21.6676 10.2383 21.6668 10.8334V21.6667C21.6668 22.2625 21.4549 22.7728 21.0309 23.1975C20.607 23.6221 20.0967 23.8341 19.5002 23.8334H6.50016ZM13.0002 18.4167C13.596 18.4167 14.1062 18.2047 14.5309 17.7808C14.9556 17.3568 15.1676 16.8466 15.1668 16.25C15.1661 15.6535 14.9541 15.1436 14.5309 14.7204C14.1077 14.2972 13.5974 14.0848 13.0002 14.0834C12.4029 14.0819 11.893 14.2943 11.4705 14.7204C11.048 15.1465 10.8357 15.6564 10.8335 16.25C10.8313 16.8437 11.0437 17.354 11.4705 17.7808C11.8973 18.2076 12.4072 18.4196 13.0002 18.4167ZM9.75016 8.66671H16.2502V6.50004C16.2502 5.59726 15.9342 4.8299 15.3022 4.19796C14.6703 3.56601 13.9029 3.25004 13.0002 3.25004C12.0974 3.25004 11.33 3.56601 10.6981 4.19796C10.0661 4.8299 9.75016 5.59726 9.75016 6.50004V8.66671Z" fill="#FFD98A" fill-opacity="0.8"/>
</svg>
